<svg width="35" height="25" viewBox="0 0 35 25" fill="none" xmlns="http://www.w3.org/2000/svg">
<path opacity="0.2" d="M34.1328 7.5625C34.1328 11.599 32.7917 15.0234 30.1094 17.8359C27.4271 20.6745 23.4557 22.7969 18.1953 24.2031V20.6094C19.8359 20.1146 21.2422 19.4766 22.4141 18.6953C23.5599 17.9141 24.4714 17.0156 25.1484 16C25.7995 15.0104 26.125 14.0599 26.125 13.1484C26.125 12.5495 25.9297 12.0417 25.5391 11.625C25.1224 11.2344 24.3151 10.7266 23.1172 10.1016C21.112 9.03385 20.1094 7.41927 20.1094 5.25781C20.1094 3.66927 20.6953 2.39323 21.8672 1.42969C23.013 0.492188 24.5365 0.0234375 26.4375 0.0234375C28.651 0.0234375 30.487 0.726562 31.9453 2.13281C33.4036 3.5651 34.1328 5.375 34.1328 7.5625ZM16.5547 7.5625C16.5547 11.599 15.2135 15.0234 12.5312 17.8359C9.84896 20.6745 5.8776 22.7969 0.617188 24.2031V20.6094C2.25781 20.1146 3.66406 19.4766 4.83594 18.6953C5.98177 17.9141 6.89323 17.0156 7.57031 16C8.22135 15.0104 8.54688 14.0599 8.54688 13.1484C8.54688 12.5495 8.35156 12.0417 7.96094 11.625C7.54427 11.2344 6.73698 10.7266 5.53906 10.1016C3.53385 9.03385 2.53125 7.41927 2.53125 5.25781C2.53125 3.66927 3.11719 2.39323 4.28906 1.42969C5.4349 0.492188 6.95833 0.0234375 8.85938 0.0234375C11.0729 0.0234375 12.9089 0.726562 14.3672 2.13281C15.8255 3.5651 16.5547 5.375 16.5547 7.5625Z" fill="#FF8C00"/>
</svg>
